<?xml version="1.0" encoding="UTF-8" standalone="no"?>
<svg
     xmlns:dc="http://purl.org/dc/elements/1.1/"
     xmlns:cc="http://creativecommons.org/ns#"
     xmlns:rdf="http://www.w3.org/1999/02/22-rdf-syntax-ns#"
     xmlns:svg="http://www.w3.org/2000/svg"
     xmlns="http://www.w3.org/2000/svg"
     xmlns:sodipodi="http://sodipodi.sourceforge.net/DTD/sodipodi-0.dtd"
     xmlns:inkscape="http://www.inkscape.org/namespaces/inkscape"
     id="svg3"
     viewBox="0 0 2272.1749 498.54326"
     height="498.54324"
     width="2272.1748"
     version="1.1"
     sodipodi:docname="oddysee-logo-site.svg"
     inkscape:version="0.92.0 r">
    <sodipodi:namedview
         pagecolor="#ffffff"
         bordercolor="#666666"
         borderopacity="1"
         objecttolerance="10"
         gridtolerance="10"
         guidetolerance="10"
         inkscape:pageopacity="0"
         inkscape:pageshadow="2"
         inkscape:window-width="1462"
         inkscape:window-height="852"
         id="namedview14"
         showgrid="false"
         inkscape:zoom="0.2861"
         inkscape:cx="1230"
         inkscape:cy="324.5"
         inkscape:window-x="1759"
         inkscape:window-y="108"
         inkscape:window-maximized="0"
         inkscape:current-layer="svg3" />
    <metadata
         id="metadata8">
        <rdf:RDF>
            <cc:Work
                 rdf:about="">
                <dc:format>image/svg+xml</dc:format>
                <dc:type
                     rdf:resource="http://purl.org/dc/dcmitype/StillImage" />
                <dc:title />
            </cc:Work>
        </rdf:RDF>
    </metadata>
    <defs
         id="defs6">
        <filter
             style="color-interpolation-filters:sRGB"
             id="filter4207">
            <feGaussianBlur
                 id="feGaussianBlur4209"
                 stdDeviation="13.97" />
        </filter>
        <filter
             style="color-interpolation-filters:sRGB"
             id="filter4211">
            <feGaussianBlur
                 id="feGaussianBlur4213"
                 stdDeviation="15.31" />
        </filter>
    </defs>
    <path
         transform="matrix(1.041,0,0,1.041,11.588411,11.554059)"
         style="opacity:0.75;fill:#0cb3f1;fill-opacity:1;filter:url(#filter4207)"
         class="oddyseelogo"
         id="path5225-2"
         d="m 228.3,28.81 c -23.9,0 -46.9,4.3 -68.2,12 -0.1,0 -0.1,0.1 -0.2,0.1 v 21.4 c 0.1,-0.1 0.1,-0.1 0.2,-0.1 0,0 0.1,0 0.1,-0.1 21,-8.6 44.1,-13.4 68.1,-13.4 99.2,0 179.6,80.49 179.6,179.69 0,99.1 -80.4,179.5 -179.6,179.5 -24,0 -47,-4.7 -68,-13.3 V 416 c 21.3,7.8 44.1,11.9 68,11.9 110.2,0 199.6,-89.4 199.6,-199.5 0,-110.2 -89.4,-199.59 -199.6,-199.59 z m -68,365.79 c -0.1,-110.8 -0.2,-221.5 -0.4,-332.29 -6.8,2.8 -13.4,6 -19.7,9.5 -0.1,0.1 -0.2,0.1 -0.2,0.1 l -0.3,312.69 c 0.2,0.1 0.3,0.2 0.5,0.3 6.4,3.5 12.9,6.7 19.6,9.6 0.1,0 0.2,0 0.3,0 0.1,0.1 0.1,0.1 0.2,0.1 z m -20.6,-10 C 85.37,353.7 48.67,295.3 48.67,228.4 48.67,161.3 85.47,102.8 140,71.91 V 49.41 C 74.07,82.11 28.78,149.9 28.78,228.4 c 0,78.2 45.19,146 110.92,178.8 z" />
    <path
         transform="matrix(0.9496,0,0,0.9497,32.455411,32.403059)"
         style="opacity:0.75;fill:#0cb3f1;fill-opacity:1;filter:url(#filter4211)"
         class="oddyseelogo"
         id="path5225-2-8"
         d="m 228.3,28.81 c -23.9,0 -46.9,4.3 -68.2,12 -0.1,0 -0.1,0.1 -0.2,0.1 v 21.4 c 0.1,-0.1 0.1,-0.1 0.2,-0.1 0,0 0.1,0 0.1,-0.1 21,-8.6 44.1,-13.4 68.1,-13.4 99.2,0 179.6,80.49 179.6,179.69 0,99.1 -80.4,179.5 -179.6,179.5 -24,0 -47,-4.7 -68,-13.3 V 416 c 21.3,7.8 44.1,11.9 68,11.9 110.2,0 199.6,-89.4 199.6,-199.5 0,-110.2 -89.4,-199.59 -199.6,-199.59 z m -68,365.79 c -0.1,-110.8 -0.2,-221.5 -0.4,-332.29 -6.8,2.8 -13.4,6 -19.7,9.5 -0.1,0.1 -0.2,0.1 -0.2,0.1 l -0.3,312.69 c 0.2,0.1 0.3,0.2 0.5,0.3 6.4,3.5 12.9,6.7 19.6,9.6 0.1,0 0.2,0 0.3,0 0.1,0.1 0.1,0.1 0.2,0.1 z m -20.6,-10 C 85.37,353.7 48.67,295.3 48.67,228.4 48.67,161.3 85.47,102.8 140,71.91 V 49.41 C 74.07,82.11 28.78,149.9 28.78,228.4 c 0,78.2 45.19,146 110.92,178.8 z" />
    <path
         style="fill:#ffffff;fill-opacity:1"
         class="oddyseelogo"
         id="path5225-2-5"
         d="m 249.24541,49.663059 c -23.9,0 -46.9,4.3 -68.2,12 -0.1,0 -0.1,0.1 -0.2,0.1 v 21.4 c 0.1,-0.1 0.1,-0.1 0.2,-0.1 0,0 0.1,0 0.1,-0.1 21,-8.6 44.1,-13.4 68.1,-13.4 99.2,0 179.6,80.480001 179.6,179.880001 0,99 -80.4,179.4 -179.6,179.4 -24,0 -47,-4.7 -68,-13.3 v 21.4 c 21.3,7.8 44.1,11.9 68,11.9 110.2,0 199.6,-89.4 199.6,-199.4 0,-110.3 -89.4,-199.780001 -199.6,-199.780001 z m -68,365.880001 c -0.1,-110.8 -0.2,-221.6 -0.4,-332.380001 -6.8,2.8 -13.4,6 -19.7,9.51 -0.1,0.1 -0.2,0.1 -0.2,0.1 l -0.3,312.770001 c 0.2,0.1 0.3,0.2 0.5,0.3 6.4,3.5 12.9,6.7 19.6,9.6 0.1,0 0.2,0 0.3,0 0.1,0.1 0.1,0.1 0.2,0.1 z m -20.6,-10 c -54.27,-30.9 -91.139999,-89.3 -91.139999,-156.1 0,-67.3 36.969999,-125.8 91.439999,-156.670001 v -22.51 C 94.975411,102.97306 49.705411,170.74306 49.705411,249.44306 c 0,78.1 45.17,145.9 110.939999,178.7 z" />
    <text
         id="text4494"
         y="389.4"
         x="482.1"
         style="font-style:normal;font-variant:normal;font-weight:normal;font-stretch:normal;font-size:40px;line-height:25px;font-family:Lato;-inkscape-font-specification:Lato;letter-spacing:0px;word-spacing:0px;fill:#000000;fill-opacity:1;stroke:none;stroke-width:1px;stroke-linecap:butt;stroke-linejoin:miter;stroke-opacity:1"
         xml:space="preserve"><tspan
             style="font-style:normal;font-variant:normal;font-weight:300;font-stretch:normal;font-size:386.6667px;font-family:Lato;-inkscape-font-specification:'Lato Light';fill:#0082ff;fill-opacity:1"
             y="389.4"
             x="482.1"
             id="tspan4492">ODDYSEE</tspan></text>
</svg>
